<svg xmlns="http://www.w3.org/2000/svg" viewBox="0 0 120 120">
  <defs>
    <linearGradient id="g1" x1="0" x2="1" y1="0" y2="1">
      <stop offset="0" stop-color="#4F46E5"/>
      <stop offset="1" stop-color="#06B6D4"/>
    </linearGradient>
  </defs>

  <!-- Map Pin Shape -->
  <path d="M60 5
           C78 5 95 22 95 40
           C95 67 60 110 60 110
           C60 110 25 67 25 40
           C25 22 42 5 60 5Z"
        fill="url(#g1)"/>

  <!-- Inner Circle -->
  <circle cx="60" cy="40" r="14" fill="white" opacity="0.95"/>

  <!-- Airplane (simple silhouette) -->
  <g transform="translate(60,40) rotate(-20)">
    <path d="M0 -22 L2 -6 L18 0 L18 4 L2 2 L0 20 L-2 20 L-1 2 L-18 4 L-18 0 L-1 -6 L-2 -22 Z"
          fill="#0F172A" />
  </g>
</svg>
